<svg width="744" height="436" viewBox="0 0 744 436" fill="none" xmlns="http://www.w3.org/2000/svg">

<style> 
.g1 {
     animation: infinite;
    -webkit-animation-name: bounce;
    animation-name: bounce;
    -webkit-animation-duration: 1s;
    animation-duration: 1s;
    -webkit-animation-fill-mode: both;
        transform-origin: center;
    transform-box: fill-box;
    animation-fill-mode: both;
}

@keyframes bounce {
0% {
    opacity: 0;
    -webkit-transform: scale(.1) rotate(30deg);
    transform: scale(.1) rotate(30deg);
    -webkit-transform-origin: center bottom;
    transform-origin: center bottom;
}
50% {
    -webkit-transform: rotate(-10deg);
    transform: rotate(-10deg);
}
70% {
    -webkit-transform: rotate(3deg);
    transform: rotate(3deg);
}
100% {
    opacity: 1;
    -webkit-transform: scale(1);
    transform: scale(1);
}
}
.g2 {
     animation: infinite;
    -webkit-animation-name: bounce;
    animation-name: bounce;
    -webkit-animation-duration: 2.5s;
    animation-duration: 2.5s;
    -webkit-animation-fill-mode: both;
        transform-origin: center;
    transform-box: fill-box;
    animation-fill-mode: both;
}


@keyframes bounce1 {
0% {
    -webkit-transform: scaleX(1);
    transform: scaleX(1);
}
30% {
    -webkit-transform: scale3d(1.25, .75, 1);
    transform: scale3d(1.25, .75, 1);
}

40% {
    -webkit-transform: scale3d(.75, 1.25, 1);
    transform: scale3d(.75, 1.25, 1);
}
50% {
    -webkit-transform: scale3d(1.15, .85, 1);
    transform: scale3d(1.15, .85, 1);
}
65% {
    -webkit-transform: scale3d(.95, 1.05, 1);
    transform: scale3d(.95, 1.05, 1);
}
75% {
    -webkit-transform: scale3d(1.05, .95, 1);
    transform: scale3d(1.05, .95, 1);
}
100% {
    -webkit-transform: scaleX(1);
    transform: scaleX(1);

}
}
</style>

<g filter="url(#filter0_d_28_2810)">
<path d="M197.24 115.076C197.618 138.987 190.938 161.253 183.25 183.14C174.68 207.81 165.102 232.1 152.625 254.999C136.367 284.856 117.715 312.816 96.6674 339.004C78.393 361.649 58.9842 382.777 37.433 401.754C33.5261 405.17 29.241 408.206 25.082 411.116C22.6874 412.761 19.9147 414.152 17.3941 411.496C14.9996 409.092 16.6379 406.435 17.6462 404.031C22.0573 393.278 29.367 384.422 35.1645 374.554C62.135 329.136 85.4507 281.693 104.607 231.847C116.706 200.219 126.537 168.338 129.435 133.926C131.326 111.534 145.819 97.3642 163.464 88.1288C186.275 76.2366 196.988 84.3334 197.114 112.04C197.24 112.925 197.24 113.937 197.24 115.076Z" fill="#00ABE3"/>
<path d="M289.872 219.956C293.779 223.371 298.946 224.13 303.609 226.028C321.757 233.239 334.487 247.282 346.712 261.705C362.339 280.049 374.06 301.177 387.545 320.913C401.031 340.522 414.894 359.879 435.185 373.289C449.553 382.777 465.18 388.217 482.32 388.85C552.141 391.633 606.587 362.662 646.16 305.858C658.763 287.766 666.829 266.892 662.544 243.74C656.747 212.871 632.675 201.358 606.209 203.382C564.24 206.419 531.22 227.799 505.762 260.44C493.915 275.621 488.37 293.712 486.101 312.816C485.723 315.726 486.48 319.774 481.816 319.774C478.035 319.774 477.153 316.232 476.523 313.069C473.12 295.863 476.019 279.29 483.959 264.108C508.283 217.299 547.982 190.098 598.143 177.827C622.089 172.007 646.665 169.983 670.862 176.688C712.831 188.327 732.744 218.564 726.82 261.958C721.023 303.96 699.723 337.233 667.46 363.927C637.212 388.85 601.798 402.513 563.988 410.104C538.026 415.291 511.686 416.303 485.471 413.394C441.613 408.586 403.047 390.242 368.263 363.421C337.007 339.257 309.532 310.665 278.781 285.869C263.405 273.47 247.903 261.578 229.629 254.114C218.16 249.433 205.809 247.788 193.584 246.144C179.343 244.119 175.562 234.378 183.88 222.359C189.173 214.642 196.735 210.594 205.179 207.937C227.865 200.979 250.55 194.02 271.471 182.508C295.795 169.097 319.111 154.295 333.856 129.625C339.654 119.884 342.931 109.13 341.418 97.7441C338.646 77.8816 323.648 69.2788 307.138 63.8387C285.839 56.754 263.531 57.007 241.224 59.1578C198.373 63.3327 160.69 81.2975 124.393 103.311C90.8693 123.3 61.1261 148.349 32.013 174.284C31.6349 174.664 31.2568 175.043 30.8787 175.296C27.854 176.941 24.9553 181.875 21.8045 179.218C18.0236 175.929 22.9388 172.893 24.8292 170.236C41.2132 148.223 62.8905 132.029 84.0636 115.203C112.799 92.3041 144.054 73.0742 176.444 56.1214C197.491 45.1148 219.547 36.512 242.106 29.1742C277.521 17.6616 313.691 11.7155 350.871 13.2336C373.556 14.1192 395.107 20.0653 413.886 33.8552C436.193 50.0488 442.999 79.5263 432.16 107.992C422.582 133.041 405.694 151.765 385.529 168.591C358.054 191.364 326.169 205.533 293.275 217.931C292.014 218.184 290.628 218.184 289.872 219.956Z" fill="#00ABE3"/>
<path d="M410.863 253.86C414.14 224.382 426.365 200.977 440.858 181.368C450.563 168.211 461.149 157.331 475.139 150.625C484.213 146.324 503.244 141.896 510.175 155.053C513.452 161.252 509.293 168.717 505.512 173.398C501.353 178.711 495.052 182.507 490.262 187.694C484.969 193.387 479.676 199.965 475.139 207.05C457.746 233.871 444.765 266.764 447.412 309.905C448.294 324.833 452.075 339.003 461.779 350.136C463.922 352.54 466.947 354.69 464.552 358.865C462.031 363.167 458.503 362.028 455.478 359.878C439.85 348.997 427.751 334.575 420.063 316.484C410.863 294.217 408.721 277.391 410.863 253.86Z" fill="#00ABE3"/>
<g class="g2"> 
<path d="M526.688 97.7435C526.688 97.7435 618.943 83.068 624.866 158.217C624.866 158.217 530.847 183.899 526.688 97.7435Z" fill="#ED257A"/>
<path d="M528.194 88.7619C528.194 88.7619 631.918 92.9368 596.251 19.8124C596.251 19.939 508.786 17.5352 528.194 88.7619Z" fill="#ED257A"/>
<path d="M521.771 89.7726C521.771 89.7726 444.01 107.484 445.774 50.5537C445.774 50.6802 512.192 37.1433 521.771 89.7726Z" fill="#ED257A"/>
<path d="M521.644 97.1107C522.778 104.955 520.51 113.81 514.46 120.769C507.528 128.612 495.808 131.649 484.339 131.016C481.188 130.89 479.928 129.878 480.054 127.094C480.18 122.16 482.7 116.467 485.347 112.166C487.994 107.864 491.901 104.322 496.816 102.171C504.378 98.5024 513.2 97.4903 521.644 97.1107Z" fill="#ED257A"/>
</g>
<g class="g1"> 
<path d="M649.185 252.848C649.564 268.535 642.254 285.488 634.188 297.76C630.281 303.706 626.122 309.526 621.207 314.713C618.686 317.243 616.039 319.647 613.141 321.671C610.746 323.315 607.469 325.466 604.571 326.099C606.335 321.418 609.99 317.369 612.763 313.194C615.661 308.766 618.56 304.212 621.207 299.531C626.5 290.296 630.785 280.554 632.675 270.054C636.456 248.546 623.727 229.949 602.05 226.28C600.16 225.901 598.269 225.648 596.379 225.395C590.203 224.509 583.776 225.015 577.726 226.407C571.929 227.672 565.753 229.569 560.46 232.226C559.704 232.606 557.939 234.25 557.057 233.618C555.923 232.859 559.326 230.708 559.956 230.329C568.4 223.75 578.734 218.689 589.069 216.286C604.571 212.617 623.223 215.02 635.952 225.015C645.152 232.606 648.933 242.474 649.185 252.848Z" fill="#ED257A"/>
</g>
</g>
<defs>
<filter id="filter0_d_28_2810" x="0.0555172" y="0.9" width="743.889" height="434.2" filterUnits="userSpaceOnUse" color-interpolation-filters="sRGB">
<feFlood flood-opacity="0" result="BackgroundImageFix"/>
<feColorMatrix in="SourceAlpha" type="matrix" values="0 0 0 0 0 0 0 0 0 0 0 0 0 0 0 0 0 0 127 0" result="hardAlpha"/>
<feOffset dy="4"/>
<feGaussianBlur stdDeviation="8.05"/>
<feComposite in2="hardAlpha" operator="out"/>
<feColorMatrix type="matrix" values="0 0 0 0 0 0 0 0 0 0 0 0 0 0 0 0 0 0 0.1 0"/>
<feBlend mode="normal" in2="BackgroundImageFix" result="effect1_dropShadow_28_2810"/>
<feBlend mode="normal" in="SourceGraphic" in2="effect1_dropShadow_28_2810" result="shape"/>
</filter>
</defs>
</svg>
