

<svg width="203" height="139" viewBox="0 0 203 139" fill="none" xmlns="http://www.w3.org/2000/svg">
<style> 
.g1 {
     animation: infinite;
    -webkit-animation-name: bounce;
    animation-name: bounce;
    -webkit-animation-duration: 1s;
    animation-duration: 1s;
    -webkit-animation-fill-mode: both;
        transform-origin: center;
    transform-box: fill-box;
    animation-fill-mode: both;
}
.g2 {
     animation: infinite;
    -webkit-animation-name: bounce1;
    animation-name: bounce1;
    -webkit-animation-duration: 1s;
    animation-duration: 1s;
    -webkit-animation-fill-mode: both;
        transform-origin: center;
    transform-box: fill-box;
    animation-fill-mode: both;
}



@keyframes bounce {
0% {
    opacity: 0;
    -webkit-transform: scale(.1) rotate(30deg);
    transform: scale(.1) rotate(30deg);
    -webkit-transform-origin: center bottom;
    transform-origin: center bottom;
}
50% {
    -webkit-transform: rotate(-10deg);
    transform: rotate(-10deg);
}
70% {
    -webkit-transform: rotate(3deg);
    transform: rotate(3deg);
}
100% {
    opacity: 1;
    -webkit-transform: scale(1);
    transform: scale(1);
}
}
@keyframes bounce1 {

0% {
    -webkit-transform: scale(.9);
    transform: scale(.9);
}
14% {
    -webkit-transform: scale(1.1);
    transform: scale(1.1);
}
28% {
    -webkit-transform: scale(.9);
    transform: scale(.9);
}
42% {
    -webkit-transform: scale(1.1);
    transform: scale(1.1);
}
70% {
    -webkit-transform: scale(.9);
    transform: scale(.9);
}


}



.gf1 {
        transform-box: fill-box;
    animation-fill-mode: both;
  animation-name: fillkay;
  animation-fill-mode: both;
	animation-duration: 4.5s;
	animation-iteration-count: infinite;
}




.gf2{
        transform-box: fill-box;
    animation-fill-mode: both;
  animation-delay: .2s;
  animation-name: fillkay;
  animation-fill-mode: both;
	animation-duration: 4.5s;
	animation-iteration-count: infinite;
}

.gf3{
        transform-box: fill-box;
    animation-fill-mode: both;
  animation-delay: .4s;
  animation-name: fillkay;
  animation-fill-mode: both;
	animation-duration: 4.5s;
	animation-iteration-count: infinite;
}

.gf4{
        transform-box: fill-box;
    animation-fill-mode: both;
  animation-delay: .6s;
  animation-name: fillkay;
  animation-fill-mode: both;
	animation-duration: 4.5s;
	animation-iteration-count: infinite;
}

.gf5{
  animation-delay: .8s;
      transform-box: fill-box;
    animation-fill-mode: both;
  animation-name: fillkay;
  animation-fill-mode: both;
  animation-duration: 4.5s;
  animation-iteration-count: infinite;
}
  
.gf6{
        transform-box: fill-box;
    animation-fill-mode: both;
  animation-delay: 1s;
  animation-name: fillkay;
  animation-fill-mode: both;
  animation-duration: 4.5s;
  animation-iteration-count: infinite;
}
  
  
.gf7{
        transform-box: fill-box;
    animation-fill-mode: both;
  animation-delay: 1.2s;
  animation-name: fillkay;
  animation-fill-mode: both;
  animation-duration: 4.5s;
  animation-iteration-count: infinite;
}
  
  
.gf8{
        transform-box: fill-box;
    animation-fill-mode: both;
  animation-delay: 1.4s;
  animation-name: fillkay;
  animation-fill-mode: both;
  animation-duration: 4.5s;
  animation-iteration-count: infinite;
}
  
.gf9{
        transform-box: fill-box;
    animation-fill-mode: both;
  animation-delay: 1.6s;
  animation-name: fillkay;
  animation-fill-mode: both;
  animation-duration: 4.5s;
  animation-iteration-count: infinite;
}
  
  
.gf10{
  animation-delay: 1.8s;
  animation-name: fillkay;
  animation-fill-mode: both;
      transform-box: fill-box;
    animation-fill-mode: both;
  animation-duration: 4.5s;
  animation-iteration-count: infinite;
}
  
  
.gf11{
  animation-delay: 2s;
  animation-name: fillkay;
      transform-box: fill-box;
    animation-fill-mode: both;
  animation-fill-mode: both;
  animation-duration: 4.5s;
  animation-iteration-count: infinite;
}
  
  
.gf12{
  animation-delay: 2.2s;
  animation-name: fillkay;
  animation-fill-mode: both;
      transform-box: fill-box;
    animation-fill-mode: both;
  animation-duration: 4.5s;
  animation-iteration-count: infinite;
}
  
  
.gf13{
  animation-delay: 2.4s;
  animation-name: fillkay;
  animation-fill-mode: both;
      transform-box: fill-box;
    animation-fill-mode: both;
  animation-duration: 4.5s;
  animation-iteration-count: infinite;
}
  



@keyframes fillkay {
0% {
    opacity: 0;
    -webkit-transform: scale(.1) rotate(30deg);
    transform: scale(.1) rotate(30deg);
    -webkit-transform-origin: center bottom;
    transform-origin: center bottom;
}
50% {
    -webkit-transform: rotate(-10deg);
    transform: rotate(-10deg);
}
70% {
    -webkit-transform: rotate(3deg);
    transform: rotate(3deg);
}
100% {
    opacity: 1;
    -webkit-transform: scale(1);
    transform: scale(1);
}
}
</style>




<path d="M52.8392 28.7211C52.9456 35.4489 51.0662 41.714 48.903 47.8722C46.4917 54.8136 43.7966 61.6482 40.286 68.0912C35.7115 76.492 30.4633 84.3589 24.5413 91.7275C19.3994 98.0993 13.9384 104.044 7.87452 109.383C6.77523 110.345 5.56955 111.199 4.39933 112.018C3.72557 112.48 2.94543 112.872 2.2362 112.124C1.56244 111.448 2.02344 110.701 2.30713 110.024C3.54826 106.998 5.60501 104.507 7.23622 101.73C14.8249 88.9509 21.3852 75.6021 26.7753 61.577C30.1796 52.6778 32.9455 43.7074 33.7611 34.0251C34.2931 27.7244 38.3711 23.7376 43.3357 21.139C49.7541 17.7929 52.7683 20.0711 52.8038 27.8668C52.8392 28.116 52.8392 28.4008 52.8392 28.7211Z" fill="#00ABE3"/>
<path d="M78.9029 58.2309C80.0022 59.192 81.4561 59.4056 82.7682 59.9395C87.8746 61.9685 91.4561 65.9198 94.8959 69.9778C99.2931 75.1394 102.591 81.084 106.385 86.6371C110.18 92.1546 114.08 97.6009 119.79 101.374C123.832 104.044 128.229 105.575 133.052 105.753C152.698 106.536 168.017 98.3841 179.152 82.4011C182.698 77.3108 184.967 71.4373 183.761 64.9231C182.13 56.2375 175.357 52.9982 167.91 53.5677C156.102 54.422 146.811 60.4379 139.648 69.6219C136.314 73.8935 134.754 78.9838 134.116 84.3589C134.01 85.1777 134.222 86.3167 132.91 86.3167C131.846 86.3167 131.598 85.32 131.421 84.4301C130.463 79.589 131.279 74.9258 133.513 70.6542C140.357 57.4833 151.527 49.83 165.641 46.3772C172.378 44.7397 179.293 44.1702 186.102 46.0568C197.91 49.3317 203.513 57.8393 201.847 70.049C200.215 81.8671 194.223 91.2291 185.144 98.74C176.634 105.753 166.669 109.597 156.031 111.733C148.726 113.192 141.314 113.477 133.939 112.658C121.598 111.306 110.747 106.144 100.96 98.5976C92.1654 91.7986 84.4348 83.7538 75.7823 76.7768C71.4561 73.2883 67.0944 69.9422 61.9525 67.842C58.7255 66.5249 55.2503 66.0622 51.8106 65.5994C47.8035 65.0299 46.7397 62.2889 49.0801 58.9072C50.5695 56.7358 52.6971 55.5967 55.073 54.8492C61.456 52.8914 67.839 50.9335 73.7256 47.6942C80.5696 43.921 87.1299 39.7561 91.2788 32.8148C92.9101 30.0738 93.8321 27.0481 93.4065 23.8444C92.6264 18.2557 88.4065 15.8351 83.7611 14.3044C77.7682 12.311 71.4915 12.3822 65.2149 12.9874C53.1581 14.1621 42.5553 19.2168 32.3424 25.4106C22.9098 31.0349 14.541 38.0831 6.34944 45.3804C6.24306 45.4872 6.13667 45.594 6.03029 45.6652C5.17922 46.128 4.36362 47.5162 3.47709 46.7687C2.41325 45.8432 3.79624 44.9889 4.32815 44.2413C8.9381 38.0475 15.0374 33.4911 20.9949 28.7567C29.08 22.3137 37.8744 16.903 46.9879 12.133C52.9099 9.03612 59.1156 6.61554 65.4631 4.55093C75.4277 1.31162 85.6051 -0.361428 96.0661 0.065733C102.449 0.31491 108.513 1.98796 113.797 5.86801C120.073 10.4244 121.988 18.7184 118.939 26.7277C116.243 33.7759 111.492 39.0442 105.818 43.7786C98.0874 50.186 89.1157 54.1728 79.8604 57.6613C79.5058 57.7325 79.1157 57.7325 78.9029 58.2309Z" fill="#00ABE3"/>
<path d="M112.946 67.7708C113.868 59.4768 117.307 52.8914 121.385 47.3739C124.116 43.6718 127.095 40.6105 131.031 38.7238C133.584 37.5136 138.939 36.2677 140.889 39.9697C141.811 41.714 140.641 43.8142 139.577 45.1313C138.407 46.6263 136.634 47.6942 135.286 49.1537C133.797 50.7556 132.307 52.6066 131.031 54.6C126.137 62.1465 122.485 71.4017 123.229 83.5402C123.478 87.7406 124.541 91.7275 127.272 94.86C127.875 95.5363 128.726 96.1415 128.052 97.3162C127.343 98.5265 126.35 98.2061 125.499 97.6009C121.102 94.5396 117.697 90.4816 115.534 85.3912C112.946 79.1262 112.343 74.3918 112.946 67.7708Z" fill="#00ABE3"/>
<g class="g2"> 
<path d="M145.534 23.8444C145.534 23.8444 171.492 19.7152 173.159 40.8597C173.159 40.8597 146.705 48.0858 145.534 23.8444Z" fill="#ED257A"/>
<path d="M145.96 21.317C145.96 21.317 175.144 22.4917 165.109 1.91677C165.109 1.95236 140.499 1.27603 145.96 21.317Z" fill="#ED257A"/>
<path d="M144.151 21.6018C144.151 21.6018 122.272 26.5853 122.768 10.5668C122.768 10.6024 141.456 6.79353 144.151 21.6018Z" fill="#ED257A"/>
<path d="M144.116 23.6664C144.435 25.8734 143.797 28.3652 142.095 30.323C140.144 32.53 136.846 33.3843 133.619 33.2063C132.733 33.1707 132.378 32.886 132.414 32.1028C132.449 30.7146 133.158 29.1127 133.903 27.9024C134.648 26.6921 135.747 25.6954 137.13 25.0903C139.258 24.058 141.74 23.7732 144.116 23.6664Z" fill="#ED257A"/>
</g>
<g class="g1"> 
    <path d="M180.003 67.486C180.109 71.9001 178.052 76.67 175.783 80.1229C174.683 81.796 173.513 83.4334 172.13 84.8929C171.421 85.6048 170.676 86.2812 169.861 86.8507C169.187 87.3135 168.265 87.9186 167.449 88.0966C167.946 86.7795 168.974 85.6404 169.754 84.4657C170.57 83.2198 171.386 81.9383 172.13 80.6213C173.62 78.0227 174.825 75.2817 175.357 72.3272C176.421 66.2758 172.839 61.043 166.74 60.0107C166.208 59.9039 165.676 59.8327 165.144 59.7615C163.407 59.5124 161.598 59.6548 159.896 60.0463C158.265 60.4023 156.527 60.9362 155.038 61.6838C154.825 61.7906 154.329 62.2533 154.08 62.0753C153.761 61.8618 154.719 61.2566 154.896 61.1498C157.272 59.2988 160.18 57.8749 163.088 57.1986C167.449 56.1663 172.698 56.8426 176.279 59.6548C178.868 61.7906 179.932 64.5671 180.003 67.486Z" fill="#ED257A"/>
</g>
<path class="gf1" d="M11.3139 136.223C10.2501 135.405 9.4345 134.906 8.86712 134.8C10.7111 134.444 12.2714 133.589 13.5125 132.201C14.7537 130.813 15.3565 129.246 15.3565 127.502C15.3565 126.221 15.0374 125.117 14.3991 124.192C13.0515 122.27 11.1366 121.308 8.61889 121.308C7.12952 121.308 5.81746 121.664 4.61178 122.341C1.98766 123.907 0.640137 126.043 0.640137 128.748C0.640137 129.994 0.959287 131.098 1.59759 132.059C2.27135 133.091 3.19334 133.838 4.36356 134.301C3.97348 134.622 3.61887 134.978 3.26426 135.44V136.081C4.22171 135.191 4.96639 134.728 5.56923 134.728C5.782 134.728 5.99477 134.764 6.20753 134.871C6.81037 135.12 7.98059 135.903 9.68273 137.22C11.2076 138.395 12.2714 139 12.9097 139C13.4416 139 14.0444 138.715 14.6827 138.181C14.931 137.968 15.392 137.505 16.1012 136.793V136.152C15.0728 137.078 14.2927 137.541 13.7608 137.541C13.2288 137.469 12.4132 137.042 11.3139 136.223ZM5.64016 133.055C3.51249 131.631 2.48412 129.638 2.48412 127.075C2.48412 125.722 2.90965 124.583 3.72526 123.658C4.61178 122.697 5.782 122.198 7.20045 122.198C8.12244 122.198 9.11535 122.483 10.1437 123.053C11.2076 123.658 12.0586 124.548 12.6969 125.722C13.2998 126.826 13.5835 128.001 13.5835 129.211C13.5835 130.528 13.1579 131.631 12.3069 132.557C11.4203 133.518 10.2856 134.016 8.90258 134.016C7.6969 134.016 6.63307 133.696 5.64016 133.055Z" fill="#999999"/>
<path class="gf2" d="M29.1511 122.092C30.1086 122.163 30.7469 123.302 31.0305 125.509C31.1369 126.328 31.1724 127.751 31.1724 129.745C31.1724 130.991 31.0305 131.881 30.7469 132.486C30.1795 133.732 28.9383 134.337 27.0589 134.337C26.1369 134.337 25.3922 134.159 24.7539 133.803C23.6901 133.198 23.1582 132.201 23.1582 130.92V123.729C23.1582 123.124 23.2646 122.697 23.5128 122.483C23.761 122.269 24.1865 122.127 24.8248 122.127V121.629H19.4702V122.127C20.1085 122.127 20.5695 122.269 20.7823 122.483C21.0305 122.697 21.1369 123.124 21.1369 123.765V130.991C21.1369 131.845 21.3497 132.593 21.7752 133.162C22.6617 134.372 24.2575 134.978 26.5979 134.978C28.7965 134.978 30.3213 134.372 31.1724 133.198C31.5979 132.628 31.8461 131.881 31.9171 130.92C31.9171 130.777 31.9525 129.958 31.9525 128.499C31.9525 124.405 32.6618 122.305 34.0093 122.092V121.593H29.1511V122.092Z" fill="#999999"/>
<path class="gf3" d="M49.1862 133.162C48.9379 132.806 48.6897 132.237 48.4415 131.489L44.5408 121.024H43.9025L39.3634 131.738C38.6897 133.34 37.945 134.159 37.1294 134.194V134.693H42.0585V134.194H41.4911C41.101 134.194 40.7819 134.088 40.5691 133.874C40.3209 133.66 40.2145 133.376 40.2145 133.02C40.2145 132.379 40.4627 131.382 40.9592 130.065H45.7819L47.094 133.625C47.1294 133.696 47.1294 133.767 47.1294 133.838C47.1294 134.052 47.0585 134.159 46.9521 134.159H46.7039V134.657H50.6401V134.194C50.0727 134.159 49.6117 133.838 49.1862 133.162ZM41.172 129.424L43.4769 123.978L45.4982 129.424H41.172Z" fill="#999999"/>
<path class="gf4" d="M59.2578 134.194H57.8393V123.729C57.8393 123.088 57.9457 122.661 58.1939 122.447C58.4067 122.234 58.8677 122.092 59.5415 122.092V121.593H54.1514V122.092C54.7897 122.092 55.2507 122.234 55.4634 122.447C55.7117 122.661 55.818 123.088 55.818 123.693V132.557C55.818 133.162 55.7117 133.589 55.4634 133.838C55.2152 134.088 54.7897 134.194 54.1514 134.194V134.693H62.0947C62.4138 134.693 62.5557 134.871 62.5557 135.191H63.0876L64.045 130.955H63.2649C62.8039 133.127 61.4918 134.194 59.2578 134.194Z" fill="#999999"/>
<path class="gf5" d="M67.5195 122.092C68.1578 122.092 68.6188 122.234 68.8316 122.447C69.0798 122.661 69.1862 123.088 69.1862 123.693V132.557C69.1862 133.162 69.0798 133.589 68.8316 133.838C68.5834 134.088 68.1578 134.194 67.5195 134.194V134.693H72.9096V134.194C71.8103 134.159 71.2429 133.625 71.2429 132.593V123.729C71.2429 123.124 71.3493 122.697 71.5976 122.483C71.8103 122.27 72.2713 122.127 72.9451 122.127V121.629H67.555V122.092H67.5195Z" fill="#999999"/>
<path class="gf6" d="M87.0588 121.593H77.4488C77.2715 121.593 77.1297 121.451 77.0233 121.13H76.5269V125.01H77.2715C77.3425 123.053 78.4063 122.092 80.4276 122.092H81.1723V132.557C81.1723 133.162 81.0659 133.589 80.8177 133.838C80.5694 134.088 80.1439 134.194 79.5056 134.194V134.693H84.8957V134.194C83.7609 134.159 83.229 133.625 83.229 132.593V122.092H83.8319C86.0659 122.092 87.1652 123.053 87.2007 125.01H87.9808V121.13H87.4489C87.4489 121.451 87.307 121.593 87.0588 121.593Z" fill="#999999"/>
<path  class="gf7" d="M99.1516 122.092C99.719 122.092 100.145 122.163 100.393 122.269C100.747 122.447 100.925 122.768 100.925 123.266C100.925 124.441 100.038 126.328 98.2651 128.926L94.7899 122.554C94.7544 122.483 94.7544 122.447 94.7544 122.376C94.7544 122.198 94.8963 122.092 95.18 122.092V121.593H91.1729V122.092C91.7048 122.092 92.2012 122.412 92.6977 123.017C92.9459 123.337 93.3005 123.836 93.6551 124.548L96.4211 129.674V132.593C96.4211 133.198 96.3147 133.625 96.0665 133.874C95.8183 134.123 95.3927 134.23 94.7544 134.23V134.728H100.145V134.194C99.0098 134.159 98.4778 133.625 98.4778 132.593V129.674L101.811 124.405C102.769 122.875 103.655 122.127 104.435 122.127V121.629H99.1516V122.092Z" fill="#999999"/>
<path class="gf8" d="M123.796 121.308C121.669 121.308 119.789 122.056 118.229 123.551C116.633 125.046 115.853 126.826 115.853 128.819C115.853 130.564 116.491 132.023 117.768 133.233C119.045 134.408 120.64 135.013 122.52 135.013C123.796 135.013 125.037 134.728 126.243 134.159C127.555 133.554 128.619 132.628 129.435 131.382C130.25 130.172 130.676 128.855 130.676 127.502C130.676 126.15 130.321 125.01 129.612 124.049C128.194 122.234 126.243 121.308 123.796 121.308ZM127.484 132.628C126.598 133.589 125.463 134.052 124.08 134.052C122.165 134.052 120.605 133.305 119.364 131.845C118.229 130.492 117.662 128.891 117.662 127.075C117.662 125.687 118.087 124.583 118.903 123.658C119.789 122.697 120.924 122.234 122.378 122.234C123.3 122.234 124.257 122.519 125.321 123.088C126.42 123.658 127.272 124.583 127.874 125.794C128.442 126.897 128.725 128.072 128.725 129.318C128.761 130.635 128.335 131.738 127.484 132.628Z" fill="#999999"/>
<path class="gf9" d="M143.229 121.593H134.896V122.092C135.534 122.092 135.995 122.234 136.208 122.447C136.456 122.661 136.563 123.088 136.563 123.693V132.557C136.563 133.162 136.456 133.589 136.208 133.838C135.96 134.088 135.534 134.194 134.896 134.194V134.693H140.286V134.194C139.151 134.159 138.619 133.625 138.619 132.593V128.57L142.662 128.499V127.787H141.74C140.499 127.787 139.612 127.467 139.116 126.79C138.69 126.256 138.478 125.366 138.478 124.121C138.478 123.515 138.513 122.839 138.584 122.127H139.435C140.676 122.127 141.598 122.341 142.201 122.732C142.91 123.195 143.265 123.978 143.265 125.046H144.045V121.166H143.549C143.478 121.451 143.407 121.593 143.229 121.593Z" fill="#999999"/>
<path class="gf10" d="M160.747 134.194H159.329V123.729C159.329 123.088 159.435 122.661 159.683 122.447C159.896 122.234 160.357 122.092 161.031 122.092V121.593H155.605V122.092C156.244 122.092 156.705 122.234 156.917 122.447C157.166 122.661 157.272 123.088 157.272 123.693V132.557C157.272 133.162 157.166 133.589 156.917 133.838C156.669 134.088 156.244 134.194 155.605 134.194V134.693H163.549C163.868 134.693 164.01 134.871 164.01 135.191H164.541L165.499 130.955H164.719C164.293 133.127 162.981 134.194 160.747 134.194Z" fill="#999999"/>
<path class="gf11" d="M169.01 122.092C169.648 122.092 170.109 122.234 170.322 122.447C170.57 122.661 170.676 123.088 170.676 123.693V132.557C170.676 133.162 170.57 133.589 170.322 133.838C170.074 134.088 169.648 134.194 169.01 134.194V134.693H174.4V134.194C173.301 134.159 172.733 133.625 172.733 132.593V123.729C172.733 123.124 172.84 122.697 173.088 122.483C173.301 122.27 173.762 122.127 174.435 122.127V121.629H169.045V122.092H169.01Z" fill="#999999"/>
<path class="gf12" d="M186.811 121.593H178.478V122.092C179.116 122.092 179.577 122.234 179.79 122.447C180.038 122.661 180.144 123.088 180.144 123.693V132.557C180.144 133.162 180.038 133.589 179.79 133.838C179.542 134.088 179.116 134.194 178.478 134.194V134.693H183.868V134.194C182.733 134.159 182.201 133.625 182.201 132.593V128.57L186.244 128.499V127.787H185.322C184.081 127.787 183.194 127.467 182.698 126.79C182.272 126.256 182.059 125.366 182.059 124.121C182.059 123.515 182.095 122.839 182.166 122.127H183.017C184.258 122.127 185.18 122.341 185.783 122.732C186.492 123.195 186.847 123.978 186.847 125.046H187.627V121.166H187.13C187.059 121.451 186.953 121.593 186.811 121.593Z" fill="#999999"/>
<path  class="gf13" d="M200.002 130.92C199.648 133.091 198.229 134.194 195.747 134.194H194.577V128.321L198.619 128.214V127.502H197.556C195.499 127.502 194.471 126.363 194.471 124.085C194.471 123.515 194.506 122.839 194.612 122.092H195.463C197.981 122.092 199.222 123.053 199.258 124.975H200.038V121.059H199.506C199.506 121.415 199.258 121.558 198.761 121.558H190.889V122.056C191.527 122.056 191.988 122.198 192.201 122.412C192.449 122.625 192.556 123.053 192.556 123.658V132.521C192.556 133.127 192.449 133.554 192.201 133.803C191.988 134.016 191.527 134.159 190.854 134.159V134.657H198.903C199.187 134.657 199.329 134.8 199.329 135.12H199.896L200.783 130.884H200.002V130.92Z" fill="#999999"/>
</svg>
