<svg width="36" height="20" viewBox="0 0 36 20" fill="none" xmlns="http://www.w3.org/2000/svg">
<path d="M16.6875 4.89437C16.7663 4.49969 17.0447 4.43125 17.3944 4.43125C20.9785 4.43594 24.5616 4.43406 28.1457 4.43406C30.0947 4.43406 32.0457 4.465 33.9938 4.42188C34.9932 4.39938 35.6785 4.735 35.9935 5.71281C35.9935 5.92375 35.9935 6.13469 35.9935 6.34563C35.9307 6.75438 35.7188 7.07031 35.4244 7.35719C34.6228 8.14094 33.8419 8.94719 33.0403 9.73094C32.8322 9.93438 32.8322 10.0666 33.0403 10.27C33.8335 11.0463 34.6041 11.8459 35.4 12.6184C35.7225 12.9316 35.9485 13.2738 35.9925 13.7256C35.9925 13.9366 35.9925 14.1475 35.9925 14.3584C35.881 14.4269 35.8922 14.5591 35.8407 14.6584C35.5678 15.1834 35.1544 15.5397 34.5553 15.5491C32.9794 15.5734 31.4035 15.5631 29.8275 15.5622C29.4994 15.5622 29.3297 15.3644 29.2641 15.0597C29.2519 14.7194 29.4253 14.4991 29.7666 14.425C29.9166 14.3922 30.0694 14.4006 30.2203 14.4006C31.47 14.3997 32.7207 14.4006 33.9703 14.4006C34.0753 14.4006 34.1803 14.3997 34.2853 14.3988C34.4972 14.3969 34.6819 14.3425 34.7766 14.1316C34.875 13.9141 34.7728 13.7434 34.6266 13.5953C34.1747 13.1378 33.7313 12.6709 33.255 12.2378C32.7282 11.6725 32.1675 11.1409 31.6285 10.5878C31.1953 10.1434 31.1907 9.8575 31.6228 9.41969C32.5688 8.4625 33.5241 7.51469 34.4719 6.55938C34.6575 6.37188 34.905 6.19094 34.7653 5.87219C34.6285 5.55906 34.3294 5.60594 34.0632 5.60594C28.6041 5.60406 23.1441 5.605 17.685 5.60406C17.4863 5.60406 17.2866 5.62094 17.0916 5.5675C16.7419 5.46906 16.5994 5.23187 16.6875 4.89437Z" fill="white"/>
<path d="M16.6877 4.89437C16.7345 5.34437 16.8958 5.48875 17.3758 5.48875C20.028 5.49062 22.6811 5.48969 25.3333 5.48969C28.278 5.48969 31.2227 5.48969 34.1674 5.49062C34.3295 5.49062 34.4955 5.46438 34.6492 5.54313C34.998 5.72125 35.0345 6.13 34.7149 6.45344C33.8186 7.36 32.9158 8.26 32.0149 9.16187C31.1777 10.0009 31.1814 9.99625 32.012 10.8391C32.4536 11.2872 32.928 11.7025 33.3236 12.1956C33.3686 12.5012 33.1745 12.6728 32.958 12.82C32.6664 13.0178 32.3345 13.0647 31.9877 13.0637C30.0714 13.0609 28.1552 13.0628 26.2399 13.0628C20.912 13.0628 15.5842 13.0628 10.2574 13.0628C9.18298 13.0628 8.88954 13.3591 8.88673 14.44C8.88579 14.9903 8.89798 15.5406 8.88111 16.0909C8.86517 16.6084 8.63454 16.9844 8.12454 17.1541C7.93892 17.1841 7.81611 17.0716 7.69986 16.9544C5.59142 14.845 3.48017 12.7384 1.38204 10.6187C0.905794 10.1378 0.931107 9.83031 1.45423 9.30437C3.08642 7.66187 4.72517 6.025 6.36111 4.38531C7.26204 3.4825 8.16204 2.58062 9.06298 1.67781C9.20361 1.53719 9.34423 1.39562 9.51954 1.29719C9.88798 1.09094 10.2883 1.24469 10.4242 1.64406C10.4786 1.8025 10.4795 1.96562 10.4795 2.12969C10.4805 2.99594 10.4786 3.86219 10.4805 4.72844C10.4814 5.27313 10.6155 5.40719 11.1705 5.40906C12.362 5.41281 13.5545 5.39406 14.7461 5.41937C15.1614 5.42875 15.4314 5.26281 15.6499 4.945C15.9939 4.92156 16.3455 5.00594 16.6877 4.89437Z" fill="white"/>
<path d="M15.6478 4.94594C15.5109 5.39312 15.3881 5.48781 14.9231 5.48875C13.6387 5.49062 12.3534 5.49062 11.069 5.48875C10.5459 5.48781 10.3762 5.31812 10.3753 4.79594C10.3734 3.85937 10.3715 2.92375 10.3762 1.98719C10.3771 1.70312 10.3434 1.43969 10.0434 1.315C9.74527 1.19125 9.53715 1.35062 9.33559 1.55312C6.68621 4.21094 4.03402 6.86594 1.38465 9.52375C1.03684 9.8725 1.02934 10.1181 1.3659 10.4556C3.55309 12.6503 5.74215 14.8412 7.93215 17.0331C7.95652 17.0575 7.98746 17.0744 8.01559 17.095C8.39902 17.2937 8.64371 17.6491 8.95215 17.9322C9.14152 18.1056 9.30277 18.3109 9.51652 18.4572C9.87277 18.7 10.184 18.5641 10.26 18.1375C10.2843 17.9987 10.2796 17.8572 10.2796 17.7166C10.2806 16.885 10.275 16.0544 10.2825 15.2228C10.2881 14.6453 10.515 14.4175 11.0878 14.3922C11.1928 14.3875 11.2978 14.3894 11.4028 14.3894C16.6725 14.3894 21.9431 14.3894 27.2128 14.3894C27.4115 14.3894 27.6112 14.3744 27.8053 14.4269C28.1606 14.5225 28.3031 14.7494 28.229 15.0953C28.1578 15.4937 27.8821 15.5678 27.5306 15.5669C24.749 15.5622 21.9684 15.5641 19.1868 15.5641C16.709 15.5641 14.2321 15.5678 11.7543 15.5584C11.5021 15.5575 11.4112 15.6044 11.4196 15.88C11.4412 16.6056 11.43 17.3312 11.4262 18.0578C11.4225 18.8537 11.0784 19.4219 10.4203 19.6694C9.71902 19.9338 9.13027 19.7322 8.60902 19.2081C5.96152 16.5456 3.30652 13.8906 0.654337 11.2319C-0.124726 10.4509 -0.125663 9.54719 0.651524 8.76812C3.31121 6.10187 5.98309 3.44687 8.62684 0.76375C9.5784 -0.201875 10.9884 0.233125 11.3334 1.27937C11.4075 1.50344 11.4281 1.73594 11.4271 1.97125C11.4253 2.69687 11.4365 3.42344 11.4206 4.14906C11.415 4.38625 11.49 4.44062 11.715 4.43781C12.7781 4.42656 13.8421 4.44437 14.9053 4.42656C15.3018 4.42187 15.5606 4.54281 15.6478 4.94594Z" fill="white"/>
<path d="M28.2291 15.0962C28.1747 14.6369 28.0191 14.5112 27.4979 14.5112C23.1075 14.5103 18.7172 14.5112 14.3279 14.5112C13.2422 14.5112 12.1566 14.5094 11.07 14.5122C10.546 14.5131 10.3772 14.6809 10.3763 15.2031C10.3744 16.1387 10.3735 17.0753 10.3772 18.0109C10.3782 18.2941 10.3454 18.5584 10.0463 18.6841C9.74816 18.8088 9.53629 18.6541 9.33848 18.4478C8.9016 17.9941 8.45816 17.5459 8.0166 17.0959C8.55098 16.9084 8.77316 16.6084 8.77504 16.0619C8.77691 15.4291 8.7741 14.7972 8.77598 14.1644C8.77785 13.3581 9.18004 12.9531 9.97785 12.9522C17.3419 12.9522 24.706 12.9512 32.0691 12.9531C32.6447 12.9531 33.0957 12.7647 33.3225 12.1956C33.8635 12.64 34.3285 13.1631 34.815 13.6628C34.966 13.8175 34.9782 14.0191 34.8778 14.2178C34.7635 14.4447 34.5713 14.5141 34.3285 14.5131C32.8922 14.5094 31.456 14.5113 30.0207 14.5122C29.5285 14.5122 29.4094 14.6003 29.265 15.0597C28.92 15.0653 28.5722 15.0044 28.2291 15.0962Z" fill="white"/>
</svg>
